<svg width="1942" height="1129" viewBox="0 0 1942 1129" fill="none" xmlns="http://www.w3.org/2000/svg">
<rect width="1942" height="1129" fill="black"/>
<path d="M366.756 443.656C366.756 440.408 368.148 438.784 370.932 438.784H527.184C529.504 438.784 530.664 440.06 530.664 442.612V460.36C530.664 463.144 529.156 464.536 526.14 464.536H404.688C401.672 464.536 400.164 465.928 400.164 468.712V550.144C400.164 552.696 401.44 553.972 403.992 553.972H494.124C496.676 553.972 497.952 555.248 497.952 557.8V576.244C497.952 577.172 497.72 577.984 497.256 578.68C496.792 579.144 495.748 579.376 494.124 579.376H403.992C401.44 579.376 400.164 580.652 400.164 583.204V667.768C400.164 670.088 401.324 671.248 403.644 671.248H531.36C533.912 671.248 535.188 672.408 535.188 674.728V693.172C535.188 694.332 534.84 695.26 534.144 695.956C533.68 696.652 532.752 697 531.36 697H371.628C368.38 697 366.756 695.376 366.756 692.128V443.656ZM583.188 697C579.94 697 578.316 695.492 578.316 692.476V517.084C578.316 514.068 579.592 512.56 582.144 512.56H603.024C605.576 512.56 606.852 513.836 606.852 516.388V536.572C606.852 537.732 607.084 538.428 607.548 538.66C608.012 538.892 608.824 538.544 609.984 537.616C617.64 531.584 624.716 526.48 631.212 522.304C637.94 517.896 644.784 514.648 651.744 512.56C658.704 510.24 666.128 509.08 674.016 509.08C692.112 509.08 705.916 513.952 715.428 523.696C725.172 533.44 730.044 546.084 730.044 561.628V691.432C730.044 695.144 728.304 697 724.824 697H705.336C703.712 697 702.552 696.652 701.856 695.956C701.16 695.028 700.812 693.868 700.812 692.476V568.24C700.812 556.872 697.912 548.056 692.112 541.792C686.312 535.296 677.148 532.048 664.62 532.048C657.892 532.048 651.512 533.208 645.48 535.528C639.68 537.616 633.764 540.748 627.732 544.924C621.7 548.868 614.972 553.972 607.548 560.236V691.78C607.548 695.26 605.808 697 602.328 697H583.188ZM927.112 512.56C928.736 512.56 929.896 513.14 930.592 514.3C931.288 515.228 931.288 516.388 930.592 517.78L859.948 691.78C858.788 695.26 856.12 697 851.944 697H839.416C835.008 697 832.108 695.376 830.716 692.128L760.42 517.78C759.956 516.388 760.072 515.228 760.768 514.3C761.464 513.14 762.624 512.56 764.248 512.56H785.824C787.216 512.56 788.376 512.908 789.304 513.604C790.232 514.068 790.928 514.996 791.392 516.388L846.028 653.152C847.652 657.56 849.508 657.444 851.596 652.804L905.884 516.388C906.348 514.996 906.928 514.068 907.624 513.604C908.552 512.908 909.712 512.56 911.104 512.56H927.112ZM1046.73 697C1045.11 697 1043.83 696.652 1042.91 695.956C1042.21 695.028 1041.86 693.868 1041.86 692.476V517.084C1041.86 514.068 1043.14 512.56 1045.69 512.56H1065.87C1068.43 512.56 1069.7 513.836 1069.7 516.388V539.008C1069.7 540.4 1070.05 541.212 1070.75 541.444C1071.44 541.676 1072.37 541.212 1073.53 540.052C1079.56 532.86 1085.48 527.06 1091.28 522.652C1097.31 518.012 1103.34 514.648 1109.37 512.56C1115.41 510.24 1121.44 509.08 1127.47 509.08C1135.59 509.08 1139.65 510.588 1139.65 513.604V534.484C1139.65 536.804 1138.61 537.732 1136.52 537.268C1134.43 537.036 1131.99 536.804 1129.21 536.572C1126.66 536.34 1123.87 536.224 1120.86 536.224C1115.75 536.224 1110.3 537.384 1104.5 539.704C1098.7 541.792 1093.25 544.808 1088.15 548.752C1083.27 552.696 1079.21 557.104 1075.97 561.976C1072.72 566.848 1071.09 571.72 1071.09 576.592V691.78C1071.09 695.26 1069.35 697 1065.87 697H1046.73ZM1472.13 588.772C1481.88 579.492 1490.11 571.256 1496.84 564.064C1503.57 556.64 1508.91 549.796 1512.85 543.532C1517.03 537.036 1520.04 530.888 1521.9 525.088C1523.99 519.056 1525.03 512.908 1525.03 506.644C1525.03 496.668 1522.48 488.316 1517.37 481.588C1512.27 474.86 1505.77 469.872 1497.89 466.624C1490.23 463.144 1482.11 461.404 1473.53 461.404C1466.8 461.404 1459.84 462.564 1452.65 464.884C1445.45 466.972 1438.49 470.568 1431.77 475.672C1425.27 480.776 1419.35 487.504 1414.02 495.856C1413.55 496.784 1412.63 497.364 1411.23 497.596C1410.07 497.828 1408.68 497.48 1407.06 496.552L1391.75 487.504C1390.12 486.344 1389.19 485.184 1388.96 484.024C1388.96 482.632 1389.43 481.24 1390.35 479.848C1401.03 464.304 1413.9 453.052 1428.98 446.092C1444.29 438.9 1460.07 435.304 1476.31 435.304C1490.93 435.304 1504.38 437.972 1516.68 443.308C1528.97 448.644 1538.83 456.648 1546.26 467.32C1553.68 477.992 1557.39 491.448 1557.39 507.688C1557.39 517.896 1555.54 527.524 1551.83 536.572C1548.35 545.62 1542.43 555.016 1534.08 564.76C1525.96 574.504 1515.05 585.872 1501.37 598.864L1431.42 664.636C1430.03 665.564 1429.45 666.492 1429.68 667.42C1430.14 668.348 1431.42 668.812 1433.51 668.812H1555.65C1558.67 668.812 1560.18 670.088 1560.18 672.64V692.824C1560.18 694.216 1559.83 695.26 1559.13 695.956C1558.67 696.652 1557.51 697 1555.65 697H1394.18C1392.09 697 1390.59 696.652 1389.66 695.956C1388.96 695.26 1388.61 693.752 1388.61 691.432V677.164C1388.61 675.54 1388.73 674.148 1388.96 672.988C1389.43 671.596 1390.35 670.088 1391.75 668.464C1393.14 666.84 1395.23 664.868 1398.01 662.548L1472.13 588.772Z" fill="white"/>
<path d="M956.593 483.488C946.054 492.38 927.662 487.321 915.957 475.367C900.416 459.495 894.79 429.435 899.8 402.629L956.593 483.488V483.488ZM968.844 473.238C962.021 470.636 934.611 457.935 945.464 412.85C928.078 402.593 903.127 394.878 901.531 393.205C901.531 393.205 901.596 395.917 900.796 401.235L959.8 480.297C961.266 477.705 965.153 475.635 968.844 473.238ZM950.209 446.505C956.027 463.699 966.32 465.731 973.908 469.983L1050.96 322.044H1051.87L980.335 474.897C987.589 481.036 997.266 487.208 1011.79 484.27C1071.66 474.671 1085.33 387.975 1052.95 316C1014.86 339.446 986.355 352.089 967.761 376.91C953.298 396.215 942.079 423.402 950.209 446.505Z" fill="#2A770B"/>
<rect x="956.02" y="517.824" width="31.3649" height="179.635" fill="white"/>
<path d="M1371.49 656.471L1315.78 706.784L1194.52 694.087L1175.48 676.787L1160.72 656.471C1155.32 647.159 1151.25 637.372 1148.49 627.108C1145.74 616.844 1144.32 606.316 1144.21 595.523C1144.21 584.307 1145.64 573.514 1148.49 563.145C1151.35 552.775 1155.48 543.093 1160.87 534.099C1166.27 525.105 1172.62 516.852 1179.92 509.339C1187.22 501.827 1195.42 495.478 1204.52 490.293C1213.62 485.109 1223.36 481.035 1233.73 478.072C1244.1 475.109 1254.89 473.628 1266.1 473.628C1277.32 473.628 1288.11 475.056 1298.48 477.913C1308.85 480.77 1318.53 484.897 1327.53 490.293C1336.52 495.69 1344.78 502.038 1352.29 509.339C1359.8 516.64 1366.15 524.841 1371.33 533.941C1376.52 543.041 1380.59 552.775 1383.56 563.145C1386.52 573.514 1388 584.307 1388 595.523C1388 606.316 1386.62 616.844 1383.87 627.108C1381.12 637.372 1377 647.159 1371.49 656.471ZM1367.68 595.523C1367.68 592.137 1367.53 588.751 1367.21 585.365C1366.89 581.979 1366.36 578.593 1365.62 575.207H1326.1C1326.73 582.085 1327.05 588.857 1327.05 595.523C1327.05 602.295 1326.73 609.067 1326.1 615.839H1365.62C1366.26 612.453 1366.73 609.067 1367.05 605.681C1367.37 602.295 1367.58 598.909 1367.68 595.523ZM1226.43 615.839H1305.78C1306.42 609.067 1306.74 602.295 1306.74 595.523C1306.74 588.857 1306.42 582.085 1305.78 575.207H1226.43C1225.79 582.085 1225.47 588.857 1225.47 595.523C1225.47 602.295 1225.79 609.067 1226.43 615.839ZM1302.93 636.155H1229.28C1229.71 638.589 1230.45 641.763 1231.5 645.678C1232.56 649.593 1233.89 653.878 1235.47 658.534C1237.06 663.19 1238.91 667.74 1241.03 672.184C1243.14 676.628 1245.47 680.755 1248.01 684.564C1250.55 688.373 1253.35 691.389 1256.42 693.611C1259.49 695.833 1262.72 696.997 1266.1 697.103C1269.49 697.103 1272.67 695.939 1275.63 693.611C1278.59 691.283 1281.39 688.267 1284.04 684.564C1286.69 680.86 1289.01 676.734 1291.02 672.184C1293.03 667.634 1294.89 663.084 1296.58 658.534C1298.27 653.984 1299.59 649.752 1300.55 645.837C1301.5 641.922 1302.29 638.694 1302.93 636.155ZM1227.22 689.325C1222.35 681.284 1218.44 672.713 1215.47 663.613C1212.51 654.513 1210.24 645.361 1208.65 636.155H1173.1C1175.64 641.763 1178.81 647.212 1182.62 652.503C1186.43 657.793 1190.66 662.82 1195.32 667.581C1199.97 672.343 1205.05 676.522 1210.55 680.12C1216.06 683.717 1221.61 686.786 1227.22 689.325ZM1323.56 636.155C1321.87 645.255 1319.59 654.355 1316.74 663.454C1313.88 672.554 1310.02 681.178 1305.15 689.325C1310.86 686.786 1316.37 683.664 1321.66 679.961C1326.95 676.258 1331.97 672.131 1336.73 667.581C1341.5 663.031 1345.78 658.058 1349.59 652.662C1353.4 647.265 1356.57 641.763 1359.11 636.155H1323.56ZM1359.11 554.891C1353.72 542.935 1346.42 532.354 1337.21 523.148C1328 513.942 1317.26 506.8 1304.99 501.721C1309.86 509.763 1313.72 518.333 1316.58 527.433C1319.43 536.533 1321.76 545.686 1323.56 554.891H1359.11ZM1266.1 493.944C1262.72 493.944 1259.54 495.108 1256.58 497.436C1253.62 499.763 1250.81 502.779 1248.17 506.483C1245.52 510.186 1243.2 514.313 1241.19 518.862C1239.18 523.412 1237.32 527.962 1235.63 532.512C1233.94 537.062 1232.56 541.295 1231.5 545.21C1230.45 549.125 1229.71 552.352 1229.28 554.891H1302.93C1302.4 552.458 1301.66 549.283 1300.71 545.368C1299.75 541.453 1298.43 537.168 1296.74 532.512C1295.04 527.857 1293.19 523.307 1291.18 518.862C1289.17 514.418 1286.84 510.292 1284.2 506.483C1281.55 502.673 1278.75 499.658 1275.79 497.436C1272.82 495.214 1269.6 494.05 1266.1 493.944ZM1227.22 501.721C1215.05 506.8 1204.36 513.942 1195.16 523.148C1185.95 532.354 1178.6 542.935 1173.1 554.891H1208.65C1210.34 545.686 1212.62 536.533 1215.47 527.433C1218.33 518.333 1222.25 509.763 1227.22 501.721ZM1166.59 575.207C1165.95 578.593 1165.48 581.979 1165.16 585.365C1164.84 588.751 1164.63 592.137 1164.53 595.523C1164.53 598.909 1164.68 602.295 1165 605.681C1165.32 609.067 1165.85 612.453 1166.59 615.839H1206.11C1205.47 609.067 1205.16 602.295 1205.16 595.523C1205.16 588.857 1205.47 582.085 1206.11 575.207H1166.59ZM1194.52 694.087L1337.85 693.928L1323.56 693.944L1371.49 656.471L1356.73 676.787C1351.02 683.241 1344.72 688.955 1337.85 693.928C1330.97 698.901 1323.61 703.187 1315.78 706.784C1307.95 710.382 1299.91 713.027 1291.66 714.72C1283.4 716.413 1274.89 717.313 1266.1 717.418C1257.43 717.418 1248.91 716.519 1240.55 714.72C1232.19 712.921 1224.15 710.276 1216.43 706.784C1208.7 703.293 1201.4 699.06 1194.52 694.087C1187.65 689.114 1181.3 683.347 1175.48 676.787L1194.52 694.087Z" fill="#2A770B"/>
</svg>
